<svg xmlns="http://www.w3.org/2000/svg" viewBox="0 0 1200 630">
  <defs>
    <linearGradient id="bgGrad" x1="0%" y1="0%" x2="100%" y2="100%">
      <stop offset="0%" style="stop-color:#fdf2f8;stop-opacity:1" />
      <stop offset="100%" style="stop-color:#fce7f3;stop-opacity:1" />
    </linearGradient>
    <linearGradient id="petalGrad" x1="0%" y1="0%" x2="100%" y2="100%">
      <stop offset="0%" style="stop-color:#ec4899;stop-opacity:1" />
      <stop offset="100%" style="stop-color:#f472b6;stop-opacity:1" />
    </linearGradient>
    <linearGradient id="petalGrad2" x1="0%" y1="0%" x2="100%" y2="100%">
      <stop offset="0%" style="stop-color:#f472b6;stop-opacity:1" />
      <stop offset="100%" style="stop-color:#fb7185;stop-opacity:1" />
    </linearGradient>
    <linearGradient id="centerGrad" x1="0%" y1="0%" x2="100%" y2="100%">
      <stop offset="0%" style="stop-color:#fbbf24;stop-opacity:1" />
      <stop offset="100%" style="stop-color:#f59e0b;stop-opacity:1" />
    </linearGradient>
  </defs>
  
  <!-- Background -->
  <rect width="1200" height="630" fill="url(#bgGrad)"/>
  
  <!-- Decorative circles -->
  <circle cx="100" cy="100" r="150" fill="#ec4899" opacity="0.1"/>
  <circle cx="1100" cy="530" r="200" fill="#f472b6" opacity="0.1"/>
  
  <!-- Flower icon -->
  <g transform="translate(150, 265)">
    <ellipse cx="50" cy="25" rx="18" ry="28" fill="url(#petalGrad)" transform="rotate(0 50 50)"/>
    <ellipse cx="50" cy="25" rx="18" ry="28" fill="url(#petalGrad2)" transform="rotate(72 50 50)"/>
    <ellipse cx="50" cy="25" rx="18" ry="28" fill="url(#petalGrad)" transform="rotate(144 50 50)"/>
    <ellipse cx="50" cy="25" rx="18" ry="28" fill="url(#petalGrad2)" transform="rotate(216 50 50)"/>
    <ellipse cx="50" cy="25" rx="18" ry="28" fill="url(#petalGrad)" transform="rotate(288 50 50)"/>
    <circle cx="50" cy="50" r="15" fill="url(#centerGrad)"/>
    <circle cx="50" cy="50" r="8" fill="#fcd34d" opacity="0.8"/>
  </g>
  
  <!-- Text -->
  <text x="280" y="290" font-family="Georgia, serif" font-size="72" font-weight="bold" fill="#831843">Sana Hafeez</text>
  <text x="280" y="360" font-family="Arial, sans-serif" font-size="32" fill="#9d174d">UI/UX Designer &amp; Creative Enthusiast</text>
  
  <!-- Tagline -->
  <text x="280" y="420" font-family="Arial, sans-serif" font-size="24" fill="#be185d" opacity="0.8">Crafting Beautiful Digital Experiences</text>
  
  <!-- Website URL -->
  <text x="280" y="520" font-family="Arial, sans-serif" font-size="20" fill="#ec4899">sanaz9t9.vercel.app</text>
</svg>
